<mxfile host="app.diagrams.net" agent="Mozilla/5.0 (X11; Linux x86_64; rv:136.0) Gecko/20100101 Firefox/136.0" version="26.2.1">
  <diagram name="Page-1" id="3sBs83xgzL2ln_oP0QX1">
    <mxGraphModel dx="1240" dy="1873" grid="1" gridSize="10" guides="1" tooltips="1" connect="1" arrows="1" fold="1" page="1" pageScale="1" pageWidth="850" pageHeight="1100" math="0" shadow="0">
      <root>
        <mxCell id="0" />
        <mxCell id="1" parent="0" />
        <mxCell id="e4r0Fgs05pasE1vqZzEG-1" value="" style="shape=umlLifeline;perimeter=lifelinePerimeter;whiteSpace=wrap;html=1;container=1;dropTarget=0;collapsible=0;recursiveResize=0;outlineConnect=0;portConstraint=eastwest;newEdgeStyle={&quot;curved&quot;:0,&quot;rounded&quot;:0};participant=umlActor;" vertex="1" parent="1">
          <mxGeometry x="30" y="45" width="20" height="1030" as="geometry" />
        </mxCell>
        <mxCell id="e4r0Fgs05pasE1vqZzEG-2" value="Telegram" style="shape=umlLifeline;perimeter=lifelinePerimeter;whiteSpace=wrap;html=1;container=1;dropTarget=0;collapsible=0;recursiveResize=0;outlineConnect=0;portConstraint=eastwest;newEdgeStyle={&quot;curved&quot;:0,&quot;rounded&quot;:0};" vertex="1" parent="1">
          <mxGeometry x="132" y="40" width="100" height="1040" as="geometry" />
        </mxCell>
        <mxCell id="e4r0Fgs05pasE1vqZzEG-3" value="Bot" style="shape=umlLifeline;perimeter=lifelinePerimeter;whiteSpace=wrap;html=1;container=1;dropTarget=0;collapsible=0;recursiveResize=0;outlineConnect=0;portConstraint=eastwest;newEdgeStyle={&quot;curved&quot;:0,&quot;rounded&quot;:0};" vertex="1" parent="1">
          <mxGeometry x="274" y="40" width="100" height="1040" as="geometry" />
        </mxCell>
        <mxCell id="e4r0Fgs05pasE1vqZzEG-4" value="SpamDetector" style="shape=umlLifeline;perimeter=lifelinePerimeter;whiteSpace=wrap;html=1;container=1;dropTarget=0;collapsible=0;recursiveResize=0;outlineConnect=0;portConstraint=eastwest;newEdgeStyle={&quot;curved&quot;:0,&quot;rounded&quot;:0};" vertex="1" parent="1">
          <mxGeometry x="416" y="40" width="100" height="1040" as="geometry" />
        </mxCell>
        <mxCell id="e4r0Fgs05pasE1vqZzEG-5" value="LinkDetector" style="shape=umlLifeline;perimeter=lifelinePerimeter;whiteSpace=wrap;html=1;container=1;dropTarget=0;collapsible=0;recursiveResize=0;outlineConnect=0;portConstraint=eastwest;newEdgeStyle={&quot;curved&quot;:0,&quot;rounded&quot;:0};" vertex="1" parent="1">
          <mxGeometry x="558" y="40" width="100" height="1040" as="geometry" />
        </mxCell>
        <mxCell id="e4r0Fgs05pasE1vqZzEG-6" value="NewsDetector" style="shape=umlLifeline;perimeter=lifelinePerimeter;whiteSpace=wrap;html=1;container=1;dropTarget=0;collapsible=0;recursiveResize=0;outlineConnect=0;portConstraint=eastwest;newEdgeStyle={&quot;curved&quot;:0,&quot;rounded&quot;:0};" vertex="1" parent="1">
          <mxGeometry x="700" y="40" width="100" height="1040" as="geometry" />
        </mxCell>
        <mxCell id="e4r0Fgs05pasE1vqZzEG-8" value="par" style="shape=umlFrame;whiteSpace=wrap;html=1;pointerEvents=0;" vertex="1" parent="1">
          <mxGeometry x="20" y="260" width="840" height="560" as="geometry" />
        </mxCell>
        <mxCell id="e4r0Fgs05pasE1vqZzEG-9" value="Sends Message" style="html=1;verticalAlign=bottom;endArrow=block;curved=0;rounded=0;" edge="1" parent="1" target="e4r0Fgs05pasE1vqZzEG-2">
          <mxGeometry width="80" relative="1" as="geometry">
            <mxPoint x="40" y="140" as="sourcePoint" />
            <mxPoint x="120" y="140" as="targetPoint" />
          </mxGeometry>
        </mxCell>
        <mxCell id="e4r0Fgs05pasE1vqZzEG-10" value="Forwards Message" style="html=1;verticalAlign=bottom;endArrow=block;curved=0;rounded=0;" edge="1" parent="1">
          <mxGeometry width="80" relative="1" as="geometry">
            <mxPoint x="181.66666666666674" y="190" as="sourcePoint" />
            <mxPoint x="323.5000000000002" y="190" as="targetPoint" />
          </mxGeometry>
        </mxCell>
        <mxCell id="e4r0Fgs05pasE1vqZzEG-11" value="Extract Message Text" style="html=1;verticalAlign=bottom;endArrow=block;curved=1;rounded=0;edgeStyle=orthogonalEdgeStyle;" edge="1" parent="1" source="e4r0Fgs05pasE1vqZzEG-3" target="e4r0Fgs05pasE1vqZzEG-3">
          <mxGeometry width="80" relative="1" as="geometry">
            <mxPoint x="324.66666666666674" y="217" as="sourcePoint" />
            <mxPoint x="323.92857142857144" y="237.02857142857135" as="targetPoint" />
            <Array as="points">
              <mxPoint x="384" y="207" />
              <mxPoint x="384" y="237" />
            </Array>
          </mxGeometry>
        </mxCell>
        <mxCell id="e4r0Fgs05pasE1vqZzEG-12" value="Check for URLs" style="html=1;verticalAlign=bottom;endArrow=block;curved=0;rounded=0;" edge="1" parent="1">
          <mxGeometry width="80" relative="1" as="geometry">
            <mxPoint x="323.66666666666674" y="320" as="sourcePoint" />
            <mxPoint x="607.5000000000002" y="320" as="targetPoint" />
          </mxGeometry>
        </mxCell>
        <mxCell id="e4r0Fgs05pasE1vqZzEG-13" value="Analyse URLs" style="html=1;verticalAlign=bottom;endArrow=block;curved=1;rounded=0;edgeStyle=orthogonalEdgeStyle;" edge="1" parent="1" source="e4r0Fgs05pasE1vqZzEG-5" target="e4r0Fgs05pasE1vqZzEG-5">
          <mxGeometry width="80" relative="1" as="geometry">
            <mxPoint x="610.7366666666667" y="340" as="sourcePoint" />
            <mxPoint x="609.9985714285715" y="360.02857142857135" as="targetPoint" />
            <Array as="points">
              <mxPoint x="670" y="330" />
              <mxPoint x="670" y="360" />
            </Array>
          </mxGeometry>
        </mxCell>
        <mxCell id="e4r0Fgs05pasE1vqZzEG-14" value="Analyse Text" style="html=1;verticalAlign=bottom;endArrow=block;curved=1;rounded=0;edgeStyle=orthogonalEdgeStyle;" edge="1" parent="1">
          <mxGeometry width="80" relative="1" as="geometry">
            <mxPoint x="466.34000000000003" y="490.00800000000004" as="sourcePoint" />
            <mxPoint x="466.34000000000003" y="520.008" as="targetPoint" />
            <Array as="points">
              <mxPoint x="532" y="490" />
              <mxPoint x="532" y="520" />
            </Array>
          </mxGeometry>
        </mxCell>
        <mxCell id="e4r0Fgs05pasE1vqZzEG-15" value="Analyse Content" style="html=1;verticalAlign=bottom;endArrow=block;curved=1;rounded=0;edgeStyle=orthogonalEdgeStyle;" edge="1" parent="1" source="e4r0Fgs05pasE1vqZzEG-6" target="e4r0Fgs05pasE1vqZzEG-6">
          <mxGeometry width="80" relative="1" as="geometry">
            <mxPoint x="752" y="630" as="sourcePoint" />
            <mxPoint x="750" y="650" as="targetPoint" />
            <Array as="points">
              <mxPoint x="812" y="620" />
              <mxPoint x="812" y="650" />
            </Array>
          </mxGeometry>
        </mxCell>
        <mxCell id="e4r0Fgs05pasE1vqZzEG-16" value="Check for Spam" style="html=1;verticalAlign=bottom;endArrow=block;curved=0;rounded=0;" edge="1" parent="1">
          <mxGeometry x="-0.0012" width="80" relative="1" as="geometry">
            <mxPoint x="323.66666666666674" y="500" as="sourcePoint" />
            <mxPoint x="465.5" y="500" as="targetPoint" />
            <mxPoint as="offset" />
          </mxGeometry>
        </mxCell>
        <mxCell id="e4r0Fgs05pasE1vqZzEG-17" value="Check for fake News" style="html=1;verticalAlign=bottom;endArrow=block;curved=0;rounded=0;" edge="1" parent="1">
          <mxGeometry width="80" relative="1" as="geometry">
            <mxPoint x="323.92857142857144" y="670" as="sourcePoint" />
            <mxPoint x="749.5" y="670" as="targetPoint" />
          </mxGeometry>
        </mxCell>
        <mxCell id="e4r0Fgs05pasE1vqZzEG-18" value="alt" style="shape=umlFrame;whiteSpace=wrap;html=1;pointerEvents=0;" vertex="1" parent="1">
          <mxGeometry x="30" y="370" width="600" height="110" as="geometry" />
        </mxCell>
        <mxCell id="e4r0Fgs05pasE1vqZzEG-19" value="alt" style="shape=umlFrame;whiteSpace=wrap;html=1;pointerEvents=0;" vertex="1" parent="1">
          <mxGeometry x="30" y="540" width="460" height="110" as="geometry" />
        </mxCell>
        <mxCell id="e4r0Fgs05pasE1vqZzEG-20" value="alt" style="shape=umlFrame;whiteSpace=wrap;html=1;pointerEvents=0;" vertex="1" parent="1">
          <mxGeometry x="30" y="700" width="740" height="110" as="geometry" />
        </mxCell>
        <mxCell id="e4r0Fgs05pasE1vqZzEG-21" value="return" style="html=1;verticalAlign=bottom;endArrow=open;dashed=1;endSize=8;curved=0;rounded=0;" edge="1" parent="1">
          <mxGeometry relative="1" as="geometry">
            <mxPoint x="340" y="540" as="sourcePoint" />
            <mxPoint x="260" y="540" as="targetPoint" />
          </mxGeometry>
        </mxCell>
        <mxCell id="e4r0Fgs05pasE1vqZzEG-22" value="return Results" style="html=1;verticalAlign=bottom;endArrow=open;dashed=1;endSize=8;curved=0;rounded=0;" edge="1" parent="1" target="e4r0Fgs05pasE1vqZzEG-3">
          <mxGeometry relative="1" as="geometry">
            <mxPoint x="610" y="400" as="sourcePoint" />
            <mxPoint x="530" y="400" as="targetPoint" />
          </mxGeometry>
        </mxCell>
        <mxCell id="e4r0Fgs05pasE1vqZzEG-23" value="Send Warning" style="html=1;verticalAlign=bottom;endArrow=open;dashed=1;endSize=8;curved=0;rounded=0;" edge="1" parent="1">
          <mxGeometry relative="1" as="geometry">
            <mxPoint x="323.5" y="440" as="sourcePoint" />
            <mxPoint x="181.32352941176464" y="440" as="targetPoint" />
          </mxGeometry>
        </mxCell>
        <mxCell id="e4r0Fgs05pasE1vqZzEG-24" value="Display Warning" style="html=1;verticalAlign=bottom;endArrow=open;dashed=1;endSize=8;curved=0;rounded=0;" edge="1" parent="1">
          <mxGeometry relative="1" as="geometry">
            <mxPoint x="182.18" y="460" as="sourcePoint" />
            <mxPoint x="40.003529411764646" y="460" as="targetPoint" />
          </mxGeometry>
        </mxCell>
        <mxCell id="e4r0Fgs05pasE1vqZzEG-25" value="Send Alert" style="html=1;verticalAlign=bottom;endArrow=open;dashed=1;endSize=8;curved=0;rounded=0;" edge="1" parent="1">
          <mxGeometry relative="1" as="geometry">
            <mxPoint x="323.5" y="600" as="sourcePoint" />
            <mxPoint x="181.81034482758616" y="600" as="targetPoint" />
          </mxGeometry>
        </mxCell>
        <mxCell id="e4r0Fgs05pasE1vqZzEG-26" value="Display Alert" style="html=1;verticalAlign=bottom;endArrow=open;dashed=1;endSize=8;curved=0;rounded=0;" edge="1" parent="1">
          <mxGeometry relative="1" as="geometry">
            <mxPoint x="181.5" y="630" as="sourcePoint" />
            <mxPoint x="39.81034482758622" y="630" as="targetPoint" />
          </mxGeometry>
        </mxCell>
        <mxCell id="e4r0Fgs05pasE1vqZzEG-27" value="Send Alert" style="html=1;verticalAlign=bottom;endArrow=open;dashed=1;endSize=8;curved=0;rounded=0;" edge="1" parent="1">
          <mxGeometry relative="1" as="geometry">
            <mxPoint x="323.5" y="770" as="sourcePoint" />
            <mxPoint x="181.81034482758616" y="770" as="targetPoint" />
          </mxGeometry>
        </mxCell>
        <mxCell id="e4r0Fgs05pasE1vqZzEG-28" value="Display Alert" style="html=1;verticalAlign=bottom;endArrow=open;dashed=1;endSize=8;curved=0;rounded=0;" edge="1" parent="1">
          <mxGeometry relative="1" as="geometry">
            <mxPoint x="181.5" y="790" as="sourcePoint" />
            <mxPoint x="39.81034482758622" y="790" as="targetPoint" />
          </mxGeometry>
        </mxCell>
        <mxCell id="e4r0Fgs05pasE1vqZzEG-31" value="Return Result" style="html=1;verticalAlign=bottom;endArrow=open;dashed=1;endSize=8;curved=0;rounded=0;" edge="1" parent="1">
          <mxGeometry relative="1" as="geometry">
            <mxPoint x="465.5000000000001" y="579.9999999999998" as="sourcePoint" />
            <mxPoint x="323.98717948717945" y="579.9999999999998" as="targetPoint" />
          </mxGeometry>
        </mxCell>
        <mxCell id="e4r0Fgs05pasE1vqZzEG-32" value="Return Results" style="html=1;verticalAlign=bottom;endArrow=open;dashed=1;endSize=8;curved=0;rounded=0;" edge="1" parent="1">
          <mxGeometry relative="1" as="geometry">
            <mxPoint x="749.5" y="740" as="sourcePoint" />
            <mxPoint x="323.95945945945937" y="740" as="targetPoint" />
          </mxGeometry>
        </mxCell>
        <mxCell id="e4r0Fgs05pasE1vqZzEG-33" value="Check Command" style="html=1;whiteSpace=wrap;" vertex="1" parent="1">
          <mxGeometry x="20" y="830" width="750" height="50" as="geometry" />
        </mxCell>
        <mxCell id="e4r0Fgs05pasE1vqZzEG-34" value="User" style="html=1;whiteSpace=wrap;" vertex="1" parent="1">
          <mxGeometry y="1040" width="90" height="40" as="geometry" />
        </mxCell>
        <mxCell id="e4r0Fgs05pasE1vqZzEG-35" value="Telegram" style="html=1;whiteSpace=wrap;" vertex="1" parent="1">
          <mxGeometry x="143" y="1040" width="90" height="40" as="geometry" />
        </mxCell>
        <mxCell id="e4r0Fgs05pasE1vqZzEG-36" value="Bot" style="html=1;whiteSpace=wrap;" vertex="1" parent="1">
          <mxGeometry x="281" y="1040" width="90" height="40" as="geometry" />
        </mxCell>
        <mxCell id="e4r0Fgs05pasE1vqZzEG-37" value="SpamDetector" style="html=1;whiteSpace=wrap;" vertex="1" parent="1">
          <mxGeometry x="430" y="1040" width="90" height="40" as="geometry" />
        </mxCell>
        <mxCell id="e4r0Fgs05pasE1vqZzEG-38" value="LinkDetector" style="html=1;whiteSpace=wrap;" vertex="1" parent="1">
          <mxGeometry x="574" y="1040" width="90" height="40" as="geometry" />
        </mxCell>
        <mxCell id="e4r0Fgs05pasE1vqZzEG-39" value="News Detector" style="html=1;whiteSpace=wrap;" vertex="1" parent="1">
          <mxGeometry x="717" y="1040" width="90" height="40" as="geometry" />
        </mxCell>
        <mxCell id="e4r0Fgs05pasE1vqZzEG-41" value="Send /checknews" style="html=1;verticalAlign=bottom;endArrow=block;curved=0;rounded=0;" edge="1" parent="1">
          <mxGeometry width="80" relative="1" as="geometry">
            <mxPoint x="40.02380952380952" y="920" as="sourcePoint" />
            <mxPoint x="181.5" y="920" as="targetPoint" />
          </mxGeometry>
        </mxCell>
        <mxCell id="e4r0Fgs05pasE1vqZzEG-42" value="Forward Command" style="html=1;verticalAlign=bottom;endArrow=block;curved=0;rounded=0;" edge="1" parent="1">
          <mxGeometry width="80" relative="1" as="geometry">
            <mxPoint x="182.02380952380952" y="940" as="sourcePoint" />
            <mxPoint x="323.5" y="940" as="targetPoint" />
          </mxGeometry>
        </mxCell>
        <mxCell id="e4r0Fgs05pasE1vqZzEG-43" value="Analyse Text" style="html=1;verticalAlign=bottom;endArrow=block;curved=0;rounded=0;" edge="1" parent="1" target="e4r0Fgs05pasE1vqZzEG-6">
          <mxGeometry width="80" relative="1" as="geometry">
            <mxPoint x="324.0238095238095" y="960" as="sourcePoint" />
            <mxPoint x="465.5" y="960" as="targetPoint" />
          </mxGeometry>
        </mxCell>
        <mxCell id="e4r0Fgs05pasE1vqZzEG-44" value="Return Result" style="html=1;verticalAlign=bottom;endArrow=open;dashed=1;endSize=8;curved=0;rounded=0;" edge="1" parent="1" target="e4r0Fgs05pasE1vqZzEG-3">
          <mxGeometry relative="1" as="geometry">
            <mxPoint x="749.5" y="990" as="sourcePoint" />
            <mxPoint x="608.0238095238097" y="990" as="targetPoint" />
          </mxGeometry>
        </mxCell>
        <mxCell id="e4r0Fgs05pasE1vqZzEG-45" value="Send Report" style="html=1;verticalAlign=bottom;endArrow=open;dashed=1;endSize=8;curved=0;rounded=0;" edge="1" parent="1">
          <mxGeometry relative="1" as="geometry">
            <mxPoint x="323.5" y="1010" as="sourcePoint" />
            <mxPoint x="182.02380952380952" y="1010" as="targetPoint" />
          </mxGeometry>
        </mxCell>
        <mxCell id="e4r0Fgs05pasE1vqZzEG-46" value="Display Report" style="html=1;verticalAlign=bottom;endArrow=open;dashed=1;endSize=8;curved=0;rounded=0;" edge="1" parent="1">
          <mxGeometry relative="1" as="geometry">
            <mxPoint x="181.5" y="1030" as="sourcePoint" />
            <mxPoint x="40.02380952380952" y="1030" as="targetPoint" />
          </mxGeometry>
        </mxCell>
      </root>
    </mxGraphModel>
  </diagram>
</mxfile>
